<?xml version="1.0" encoding="iso-8859-1"?>
<!-- Generator: Adobe Illustrator 19.0.0, SVG Export Plug-In . SVG Version: 6.00 Build 0)  -->
<svg version="1.1" id="Capa_1" xmlns="http://www.w3.org/2000/svg" xmlns:xlink="http://www.w3.org/1999/xlink" x="0px" y="0px"
	 viewBox="0 0 512 512" style="enable-background:new 0 0 512 512;" xml:space="preserve">
<g>
	<path style="fill:#F7B64C;" d="M193.067,170.667c0,0-87.467-117.333-43.733-170.667c0,0,2.133,17.067,28.8,39.467
		C204.8,61.867,253.867,128,193.067,170.667z"/>
	<path style="fill:#F7B64C;" d="M194.133,169.6c0,0-84.267-120.533-148.267-96c0,0,16,7.467,28.8,39.467
		C87.467,146.133,133.333,213.333,194.133,169.6z"/>
</g>
<path style="fill:#FFD15C;" d="M188.8,107.733C202.667,128,208,160,194.133,170.667c-13.867,10.667-43.733-4.267-57.6-24.533
	C122.667,125.867,83.2,48,98.133,37.333C114.133,24.533,174.933,88.533,188.8,107.733z"/>
<g>
	<path style="fill:#66C6B9;" d="M98.133,152.533c21.333,25.6,55.467,45.867,94.933,18.133l0,0l0,0l0,0l0,0
		c38.4-28.8,30.933-66.133,12.8-96C232.533,138.667,150.4,198.4,98.133,152.533z"/>
	<path style="fill:#66C6B9;" d="M197.333,155.733c-3.2-4.267-5.333-9.6-9.6-13.867C170.667,118.4,147.2,107.733,147.2,107.733
		s3.2,25.6,19.2,49.067c3.2,5.333,7.467,9.6,10.667,13.867L197.333,155.733z"/>
</g>
<g>
	<path style="fill:#4ABAA5;" d="M170.667,137.6c0,0,3.2,3.2,7.467,8.533c2.133,3.2,5.333,6.4,8.533,10.667
		c3.2,4.267,6.4,9.6,9.6,14.933c6.4,10.667,12.8,24.533,19.2,39.467c6.4,14.933,11.733,30.933,18.133,46.933
		c10.667,32,19.2,65.067,23.467,90.667c5.333,25.6,6.4,42.667,6.4,42.667l-18.133,2.133c0,0-1.067-16-4.267-41.6
		c-3.2-24.533-9.6-57.6-19.2-90.667c-4.267-16-9.6-32-14.933-46.933s-11.733-27.733-17.067-39.467
		c-3.2-5.333-5.333-10.667-8.533-14.933c-3.2-4.267-5.333-7.467-7.467-10.667C169.6,144,166.4,140.8,166.4,140.8L170.667,137.6z"/>
	<path style="fill:#4ABAA5;" d="M332.8,217.6c0,0-9.6,7.467-21.333,21.333c-5.333,7.467-11.733,16-17.067,25.6
		c-3.2,5.333-5.333,9.6-8.533,16c-3.2,5.333-4.267,10.667-7.467,17.067c-2.133,5.333-4.267,11.733-5.333,17.067
		C272,320,269.867,326.4,268.8,331.733c-1.067,5.333-2.133,10.667-3.2,16c-1.067,5.333-1.067,9.6-1.067,14.933
		c-1.067,8.533-1.067,17.067-1.067,21.333c0,5.333,0,8.533,0,8.533h-18.133c0,0,0-3.2,1.067-8.533
		c0-5.333,1.067-13.867,2.133-23.467c1.067-4.267,1.067-9.6,2.133-14.933c1.067-5.333,2.133-10.667,4.267-17.067
		c2.133-5.333,3.2-11.733,5.333-18.133c2.133-6.4,4.267-11.733,7.467-18.133c3.2-5.333,5.333-11.733,8.533-17.067
		c3.2-5.333,6.4-10.667,9.6-16c6.4-9.6,13.867-19.2,20.267-25.6c12.8-13.867,23.467-21.333,23.467-21.333L332.8,217.6z"/>
	<polygon style="fill:#4ABAA5;" points="259.2,213.333 263.467,486.4 245.333,486.4 248.533,213.333 	"/>
</g>
<g>
	<path style="fill:#E8EAE9;" d="M318.933,231.467c0,0,87.467-117.333,43.733-170.667c0,0-2.133,17.067-28.8,39.467
		C307.2,122.667,258.133,188.8,318.933,231.467z"/>
	<path style="fill:#E8EAE9;" d="M317.867,230.4c0,0,84.267-120.533,148.267-96c0,0-16,7.467-28.8,39.467
		C424.533,206.933,378.667,274.133,317.867,230.4z"/>
</g>
<path style="fill:#F3F3F3;" d="M323.2,168.533c-13.867,19.2-19.2,52.267-4.267,61.867c14.933,10.667,43.733-4.267,57.6-24.533
	c13.867-19.2,53.333-98.133,38.4-108.8C397.867,85.333,337.067,149.333,323.2,168.533z"/>
<g>
	<path style="fill:#66C6B9;" d="M413.867,213.333c-21.333,25.6-55.467,45.867-94.933,18.133l0,0l0,0l0,0l0,0
		c-38.4-28.8-30.933-66.133-12.8-96C279.467,199.467,361.6,259.2,413.867,213.333z"/>
	<path style="fill:#66C6B9;" d="M314.667,216.533c3.2-4.267,5.333-9.6,9.6-13.867c17.067-23.467,40.533-34.133,40.533-34.133
		s-3.2,25.6-19.2,49.067c-3.2,5.333-7.467,9.6-10.667,13.867L314.667,216.533z"/>
</g>
<g>
	<path style="fill:#F05540;" d="M253.867,237.867c0,0-3.2-177.067,77.867-198.4c0,0-10.667,18.133,0,58.667
		C342.4,139.733,343.467,237.867,253.867,237.867z"/>
	<path style="fill:#F05540;" d="M256,237.867c0,0,3.2-177.067-77.867-198.4c0,0,10.667,18.133,0,58.667
		C168.533,139.733,166.4,237.867,256,237.867z"/>
</g>
<path style="fill:#F3705A;" d="M294.4,173.867c0,28.8-18.133,64-39.467,64s-39.467-35.2-39.467-64S233.6,40.533,254.933,40.533
	C280.533,39.467,294.4,144,294.4,173.867z"/>
<g>
	<path style="fill:#66C6B9;" d="M173.867,153.6c3.2,40.533,21.333,83.2,80,84.267h1.067l0,0l0,0H256
		c57.6-1.067,76.8-43.733,80-84.267C315.733,233.6,193.067,233.6,173.867,153.6z"/>
	<path style="fill:#66C6B9;" d="M268.8,226.133c1.067-6.4,1.067-13.867,1.067-20.267c0-34.133-14.933-61.867-14.933-61.867
		S240,171.733,240,205.867c0,7.467,0,13.867,1.067,20.267H268.8z"/>
</g>
<g>
	<path style="fill:#4ABAA5;" d="M171.733,512l-5.333-10.667c94.933-51.2,71.467-178.133,71.467-180.267l11.733-2.133
		C249.6,320,275.2,456.533,171.733,512z"/>
	<path style="fill:#4ABAA5;" d="M281.6,468.267C237.867,405.333,252.8,323.2,253.867,320l11.733,2.133
		c0,1.067-14.933,81.067,25.6,139.733L281.6,468.267z"/>
</g>
<path style="fill:#344A5E;" d="M259.2,345.6c-6.4,0-13.867-1.067-22.4-3.2c-3.2-1.067-5.333-4.267-4.267-7.467
	c1.067-3.2,4.267-5.333,7.467-4.267c10.667,3.2,19.2,4.267,25.6,2.133c3.2-1.067,6.4,1.067,7.467,4.267
	c1.067,3.2-1.067,6.4-4.267,7.467C265.6,345.6,262.4,345.6,259.2,345.6z"/>
<path style="fill:#415A6B;" d="M260.267,333.867c-18.133,0-26.667-5.333-27.733-6.4c-3.2-2.133-3.2-5.333-1.067-8.533
	c2.133-3.2,5.333-3.2,8.533-1.067c0,0,9.6,5.333,29.867,4.267c3.2,0,6.4,2.133,6.4,5.333c0,3.2-2.133,6.4-5.333,6.4
	C266.667,333.867,263.467,333.867,260.267,333.867z"/>
<path style="fill:#344A5E;" d="M219.733,419.2c-2.133-3.2-1.067-6.4,2.133-8.533c1.067,0,12.8-8.533,9.6-30.933
	c-4.267-30.933,13.867-44.8,14.933-45.867c2.133-1.067,4.267-1.067,6.4-1.067c2.133,1.067,3.2,3.2,3.2,5.333
	c0,1.067,2.133,22.4,23.467,35.2c3.2,2.133,4.267,5.333,2.133,8.533s-5.333,4.267-8.533,2.133c-14.933-9.6-22.4-22.4-26.667-32
	c-3.2,5.333-5.333,13.867-4.267,25.6c4.267,30.933-14.933,42.667-14.933,43.733C225.067,423.467,221.867,423.467,219.733,419.2z"/>
<g>
</g>
<g>
</g>
<g>
</g>
<g>
</g>
<g>
</g>
<g>
</g>
<g>
</g>
<g>
</g>
<g>
</g>
<g>
</g>
<g>
</g>
<g>
</g>
<g>
</g>
<g>
</g>
<g>
</g>
</svg>
