<?xml version="1.0" encoding="iso-8859-1"?>
<!-- Generator: Adobe Illustrator 19.0.0, SVG Export Plug-In . SVG Version: 6.00 Build 0)  -->
<svg version="1.1" id="Capa_1" xmlns="http://www.w3.org/2000/svg" xmlns:xlink="http://www.w3.org/1999/xlink" x="0px" y="0px"
	 viewBox="0 0 512 512" style="enable-background:new 0 0 512 512;" xml:space="preserve">
<polygon style="fill:#FFFFFF;" points="272.211,111.707 240.147,111.707 232.131,504.5 280.227,504.5 "/>
<path style="fill:#FFC850;" d="M272.999,150.315l-0.788-38.607h-32.064L232.131,504.5h24.048l-0.533-337.959
	c-0.013-8.339,6.368-15.295,14.678-16L272.999,150.315z"/>
<path style="fill:#FFFFFF;" d="M366.109,13.793c-64.254-19.677-96.473,13.898-109.93,52.291
	C242.722,27.692,210.503-5.884,146.25,13.793c-4.401,1.348-5.466,7.154-1.784,9.916l111.713,83.785L367.892,23.71
	C371.575,20.949,370.51,15.141,366.109,13.793z"/>
<path style="fill:#ABFFDB;" d="M142.654,17.525c-0.693,2.15-0.266,4.625,1.812,6.184l111.391,83.544v-3.426
	C243.198,41.881,173.51,22.931,142.654,17.525z"/>
<g>
	<path style="fill:#FFFFFF;" d="M350.263,113.506H162.096c-56.672,21.427-66.379,82.065-67.929,107.256
		c-0.287,4.663,4.976,7.563,8.811,4.895L256.18,119.083l153.2,106.574c3.835,2.668,9.097-0.233,8.811-4.895
		C416.641,195.572,406.935,134.934,350.263,113.506z"/>
	<path style="fill:#FFFFFF;" d="M255.857,103.827c-82.962-92.185-154.339-25.628-176.753,0.45c-3.112,3.621-0.485,9.23,4.289,9.23
		h344.961c4.853,0,7.413-5.798,4.175-9.411C349.852,11.846,278.676,77.423,255.857,103.827z"/>
</g>
<g>
	<path style="fill:#ABFFDB;" d="M78.113,109.68c0.733,2.122,2.66,3.826,5.279,3.826h172.786
		C256.179,113.506,175.947,46.343,78.113,109.68z"/>
	<path style="fill:#ABFFDB;" d="M369.704,17.525c0.693,2.15,0.266,4.625-1.812,6.184l-111.391,83.544v-3.426
		C269.16,41.881,338.847,22.931,369.704,17.525z"/>
	<path style="fill:#ABFFDB;" d="M281.67,113.506h-50.982c-36.192,5.589-101.478,27.724-132.404,112.946
		c1.51,0.419,3.206,0.24,4.694-0.796l153.201-106.574L409.38,225.656c1.488,1.035,3.183,1.214,4.694,0.796
		C383.149,141.231,317.862,119.095,281.67,113.506z"/>
	<path style="fill:#ABFFDB;" d="M434.244,109.68c-0.733,2.122-2.66,3.826-5.279,3.826H256.179
		C256.179,113.506,336.41,46.343,434.244,109.68z"/>
</g>
<path style="fill:#474D54;" d="M446.552,109.258c-1.623-2.361-40.422-57.849-98.648-60.18c-0.49-0.02-0.98-0.022-1.47-0.034
	l34.307-25.731c2.192-1.644,3.313-4.352,2.924-7.064c-0.389-2.712-2.226-4.997-4.791-5.959
	c-36.918-13.844-67.577-13.718-91.127,0.378c-14.665,8.777-24.758,21.988-31.719,35.959c-2.644-5.308-5.59-10.203-8.823-14.64
	c-7.948-10.908-17.678-19.156-28.917-24.516c-22.683-10.815-51.337-9.867-85.165,2.819c-2.565,0.962-4.402,3.246-4.791,5.959
	c-0.389,2.712,0.732,5.42,2.924,7.064l34.307,25.73c-0.49,0.012-0.979,0.014-1.469,0.034c-58.225,2.331-97.025,57.819-98.648,60.18
	c-1.578,2.295-1.754,5.276-0.458,7.741c1.297,2.465,3.853,4.008,6.638,4.008h61.457c-18.254,13.977-31.714,34.213-39.527,59.778
	c-8.289,27.12-7.34,50.521-7.295,51.503c0.123,2.729,1.721,5.175,4.17,6.385c1.052,0.52,2.188,0.776,3.322,0.776
	c1.505,0,3.004-0.453,4.284-1.343L232.18,144.79L224.612,497h-24.724c-4.142,0-7.5,3.358-7.5,7.5c0,4.142,3.358,7.5,7.5,7.5h112.227
	c4.142,0,7.5-3.358,7.5-7.5c0-4.142-3.358-7.5-7.5-7.5H287.39l-7.568-352.21l134.141,93.316c1.28,0.89,2.778,1.343,4.284,1.343
	c1.133,0,2.271-0.256,3.322-0.776c2.449-1.21,4.047-3.656,4.17-6.385c0.044-0.983,0.993-24.383-7.295-51.503
	c-7.812-25.561-21.266-45.799-39.514-59.778h61.444c2.785,0,5.341-1.544,6.638-4.008
	C448.306,114.533,448.131,111.553,446.552,109.258z M295.452,23.539c16.699-9.994,38.463-11.204,64.832-3.631l-44.718,33.539
	c-19.817,6.202-39.183,18.896-57.928,37.981C261.098,70.567,270.417,38.522,295.452,23.539z M211.833,21.011
	c16.282,7.763,28.475,23.088,36.284,45.524c-1.64,5.28-2.92,10.414-3.922,15.211c-15.562-13.775-31.521-23.235-47.784-28.318
	l-44.693-33.521C175.672,13.027,195.85,13.389,211.833,21.011z M164.694,64.066c28.113-1.125,55.929,12.972,82.888,41.941H87.409
	C101.335,90.635,129.372,65.48,164.694,64.066z M108.031,184.751c9.801-31.713,28.41-53.147,55.309-63.744h76.761l-138.317,96.221
	C102.534,208.639,104.234,197.037,108.031,184.751z M272.385,497h-32.77l7.795-362.805l8.59-5.976l8.59,5.976L272.385,497z
	 M336.163,106.007c-4.142,0-7.5,3.358-7.5,7.5s3.358,7.5,7.5,7.5h12.496c26.9,10.597,45.508,32.03,55.309,63.744
	c3.797,12.286,5.497,23.889,6.246,32.477l-138.317-96.221h32.196c4.142,0,7.5-3.358,7.5-7.5s-3.358-7.5-7.5-7.5h-39.676
	c26.931-28.939,54.727-43.042,82.804-41.944c26.221,1.022,48.321,15.37,62.244,27.226c6.071,5.17,11.171,10.339,15.133,14.719
	h-88.436V106.007z"/>
<g>
</g>
<g>
</g>
<g>
</g>
<g>
</g>
<g>
</g>
<g>
</g>
<g>
</g>
<g>
</g>
<g>
</g>
<g>
</g>
<g>
</g>
<g>
</g>
<g>
</g>
<g>
</g>
<g>
</g>
</svg>
